<?xml version="1.0" encoding="utf-8"?>
<?xml-stylesheet type="text/xsl" href="rss1.xsl"?>
<rss version="2.0" xmlns:atom="http://www.w3.org/2005/Atom" xmlns:content="http://purl.org/rss/1.0/modules/content/" xmlns:dc="http://purl.org/dc/elements/1.1/" xmlns:media="http://search.yahoo.com/mrss/">
<channel>
 <title>Getty</title>
 <link>http://www.gettyimg.com/</link>
 <atom:link href="http://www.gettyimg.com/" rel="self" type="application/rss+xml" />

 
                <item>
                <title><![CDATA[【TIDAL】WEB-RiP - Céline Dion - Misled (TIDAL-1080p-LK72)]]></title>
                <link><![CDATA[https://sharemania.us/threads/c%C3%A9line-dion-misled-tidal-1080p-lk72.236170/]]></link>
                <description><![CDATA[<article>
<blockquote class="messageText SelectQuoteContainer ugc baseHtml">
<div style="text-align: center"><img src="https://i.imgur.com/JPJVEXO.jpg" class="bbCodeImage LbImage" alt="[​IMG]" data-url="https://i.imgur.com/JPJVEXO.jpg" style=""> <br>
<div class="bbCodeBlock bbCodeVfcHH HiddenContent">
<div class="attribution type">Hidden Content:</div>
<blockquote>You must reply before you can see the hidden data contained here.</blockquote>
</div></div>
<div class="messageTextEndMarker">&nbsp;</div>
</blockquote>
</article>]]></description>
                <author><![CDATA[luke72]]></author>
                </item>

                
                <item>
                <title><![CDATA[【Music Videos】NSYNC - Gone (Audio Dual 5.1 + 2.0) (Clean)]]></title>
                <link><![CDATA[https://sharemania.us/threads/nsync-gone-audio-dual-5-1-2-0-clean.236168/]]></link>
                <description><![CDATA[<article>
<blockquote class="messageText SelectQuoteContainer ugc baseHtml">
<img src="https://i.ibb.co/PMyy9zj/17-N-Sync-Gone-5-1-2-0-VOB-thumbs-2024-01-21-02-16-08.jpg" class="bbCodeImage LbImage" alt="[​IMG]" data-url="https://i.ibb.co/PMyy9zj/17-N-Sync-Gone-5-1-2-0-VOB-thumbs-2024-01-21-02-16-08.jpg" style=""> <br>
<br>
<div class="ToggleTriggerAnchor bbCodeSpoilerContainer">
<button type="button" class="button bbCodeSpoilerButton ToggleTrigger Tooltip JsOnly" data-target="> .SpoilerTarget"><span>Spoiler: <span class="SpoilerTitle">MediaInfo</span></span></button>
<div class="SpoilerTarget bbCodeSpoilerText">'N Sync-Gone (5.1 + 2.0).VOB<br>
Format : MPEG-PS<br>
File size : 255 MiB<br>
Duration : 5 min 10 s<br>
Overall bit rate mode : Variable<br>
Overall bit rate : 6 901 kb/s<br>
Frame rate : 29.970 FPS<br>
<br>
Video<br>
ID : 224 (0xE0)<br>
Format : MPEG Video<br>
Format version : Version 2<br>
Format profile : Main@Main<br>
Format settings : BVOP<br>
Format settings, BVOP : Yes<br>
Format settings, Matrix : Default<br>
Format settings, GOP : M=3, N=13<br>
Format settings, picture st : Frame<br>
Duration : 5 min 10 s<br>
Bit rate mode : Variable<br>
Bit rate : 6 188 kb/s<br>
Maximum bit rate : 9 000 kb/s<br>
Width : 720 pixels<br>
Height : 480 pixels<br>
Display aspect ratio : 4:3<br>
Frame rate : 29.970 (30000/1001) FPS<br>
Standard : NTSC<br>
Color space : YUV<br>
Chroma subsampling : 4:2:0<br>
Bit depth : 8 bits<br>
Scan type : Interlaced<br>
Scan order : Top Field First<br>
Compression mode : Lossy<br>
Bits/(Pixel*Frame) : 0.597<br>
Time code of first frame : 01:16:36:24<br>
Time code source : Group of pictures header<br>
GOP, Open/Closed : Open<br>
Stream size : 229 MiB (90%)<br>
Color primaries : BT.601 NTSC<br>
Transfer characteristics : BT.601<br>
Matrix coefficients : BT.601<br>
<br>
Audio #1<br>
ID : 189 (0xBD)-128 (0x80)<br>
Format : AC-3<br>
Format/Info : Audio Coding 3<br>
Commercial name : Dolby Digital<br>
Muxing mode : DVD-Video<br>
Duration : 5 min 10 s<br>
Bit rate mode : Constant<br>
Bit rate : 192 kb/s<br>
Channel(s) : 2 channels<br>
Channel layout : L R<br>
Sampling rate : 48.0 kHz<br>
Frame rate : 31.250 FPS (1536 SPF)<br>
Compression mode : Lossy<br>
Delay relative to video : 35 ms<br>
Stream size : 7.11 MiB (3%)<br>
Service kind : Complete Main<br>
<br>
Audio #2<br>
ID : 189 (0xBD)-129 (0x81)<br>
Format : AC-3<br>
Format/Info : Audio Coding 3<br>
Commercial name : Dolby Digital<br>
Muxing mode : DVD-Video<br>
Duration : 5 min 10 s<br>
Bit rate mode : Constant<br>
Bit rate : 384 kb/s<br>
Channel(s) : 6 channels<br>
Channel layout : L R C LFE Ls Rs<br>
Sampling rate : 48.0 kHz<br>
Frame rate : 31.250 FPS (1536 SPF)<br>
Compression mode : Lossy<br>
Delay relative to video : 35 ms<br>
Stream size : 14.2 MiB (6%)<br>
Service kind : Complete Main<br>
<br>
Text<br>
ID : 189 (0xBD)-33 (0x21)<br>
Format : RLE<br>
Format/Info : Run-length encoding<br>
Muxing mode : DVD-Video<br>
Delay relative to video : 1 s 602 ms</div>
</div><br>
<div class="bbCodeBlock bbCodeVfcHH HiddenContent">
<div class="attribution type">Hidden Content:</div>
<blockquote>You must reply before you can see the hidden data contained here.</blockquote>
</div>
<div class="messageTextEndMarker">&nbsp;</div>
</blockquote>
</article>]]></description>
                <author><![CDATA[DJ-RoGeRs-BS]]></author>
                </item>

                
                <item>
                <title><![CDATA[【TIDAL】WEB-RiP - Alicia Keys - If I Ain't Got You (TIDAL-1080p-LK72)]]></title>
                <link><![CDATA[https://sharemania.us/threads/alicia-keys-if-i-aint-got-you-tidal-1080p-lk72.236169/]]></link>
                <description><![CDATA[<article>
<blockquote class="messageText SelectQuoteContainer ugc baseHtml">
<div style="text-align: center"><img src="https://i.imgur.com/39cllyp.jpg" class="bbCodeImage LbImage" alt="[​IMG]" data-url="https://i.imgur.com/39cllyp.jpg" style=""> <br>
<div class="bbCodeBlock bbCodeVfcHH HiddenContent">
<div class="attribution type">Hidden Content:</div>
<blockquote>You must reply before you can see the hidden data contained here.</blockquote>
</div></div>
<div class="messageTextEndMarker">&nbsp;</div>
</blockquote>
</article>]]></description>
                <author><![CDATA[luke72]]></author>
                </item>

                </channel></rss>